<svg xmlns="http://www.w3.org/2000/svg" viewBox="0 0 1200 360" width="1200" height="360" role="img" aria-label="Contact Information">
  <rect width="1200" height="360" fill="#f4ead5"/>
  <g transform="translate(50,50)" fill="none" stroke="#1b3a5c" stroke-width="0.5" opacity="0.15">
    <circle r="3" fill="#1b3a5c" stroke="none"/>
    <circle r="8"/>
    <path d="M0,-12 C2.5,-16 2.5,-20 0,-22 C-2.5,-20 -2.5,-16 0,-12Z" transform="rotate(0)"/>
    <path d="M0,-12 C2.5,-16 2.5,-20 0,-22 C-2.5,-20 -2.5,-16 0,-12Z" transform="rotate(45)"/>
    <path d="M0,-12 C2.5,-16 2.5,-20 0,-22 C-2.5,-20 -2.5,-16 0,-12Z" transform="rotate(90)"/>
    <path d="M0,-12 C2.5,-16 2.5,-20 0,-22 C-2.5,-20 -2.5,-16 0,-12Z" transform="rotate(135)"/>
    <path d="M0,-12 C2.5,-16 2.5,-20 0,-22 C-2.5,-20 -2.5,-16 0,-12Z" transform="rotate(180)"/>
    <path d="M0,-12 C2.5,-16 2.5,-20 0,-22 C-2.5,-20 -2.5,-16 0,-12Z" transform="rotate(225)"/>
    <path d="M0,-12 C2.5,-16 2.5,-20 0,-22 C-2.5,-20 -2.5,-16 0,-12Z" transform="rotate(270)"/>
    <path d="M0,-12 C2.5,-16 2.5,-20 0,-22 C-2.5,-20 -2.5,-16 0,-12Z" transform="rotate(315)"/>
    <circle r="26"/>
  </g>
  <g transform="translate(1150,310)" fill="none" stroke="#1b3a5c" stroke-width="0.5" opacity="0.15">
    <circle r="3" fill="#1b3a5c" stroke="none"/>
    <circle r="8"/>
    <path d="M0,-12 C2.5,-16 2.5,-20 0,-22 C-2.5,-20 -2.5,-16 0,-12Z" transform="rotate(0)"/>
    <path d="M0,-12 C2.5,-16 2.5,-20 0,-22 C-2.5,-20 -2.5,-16 0,-12Z" transform="rotate(45)"/>
    <path d="M0,-12 C2.5,-16 2.5,-20 0,-22 C-2.5,-20 -2.5,-16 0,-12Z" transform="rotate(90)"/>
    <path d="M0,-12 C2.5,-16 2.5,-20 0,-22 C-2.5,-20 -2.5,-16 0,-12Z" transform="rotate(135)"/>
    <path d="M0,-12 C2.5,-16 2.5,-20 0,-22 C-2.5,-20 -2.5,-16 0,-12Z" transform="rotate(180)"/>
    <path d="M0,-12 C2.5,-16 2.5,-20 0,-22 C-2.5,-20 -2.5,-16 0,-12Z" transform="rotate(225)"/>
    <path d="M0,-12 C2.5,-16 2.5,-20 0,-22 C-2.5,-20 -2.5,-16 0,-12Z" transform="rotate(270)"/>
    <path d="M0,-12 C2.5,-16 2.5,-20 0,-22 C-2.5,-20 -2.5,-16 0,-12Z" transform="rotate(315)"/>
    <circle r="26"/>
  </g>
  <text x="60" y="76" font-family="Georgia, serif" font-style="italic" font-size="48" fill="#0c1b2e"><tspan fill="#1b3a5c">&#10022; </tspan>Get In Touch</text>
  <text x="60" y="106" font-family="ui-monospace, &#39;SF Mono&#39;, Menlo, monospace" font-size="13" fill="#3d5a80" letter-spacing="3">REACH OUT &#183; CONNECT &#183; COLLABORATE</text>
  <g font-family="ui-monospace, &#39;SF Mono&#39;, Menlo, monospace" font-size="13" fill="#0c1b2e">
    <g transform="translate(60,140)">
      <rect width="200" height="180" fill="none" stroke="#0c1b2e" stroke-width="1.5" stroke-dasharray="6 4"/>
      <rect x="6" y="6" width="188" height="168" fill="none" stroke="#0c1b2e" stroke-width="0.5" stroke-dasharray="2 3" opacity="0.5"/>
      <text x="100" y="62" text-anchor="middle" font-size="44" fill="#1b3a5c">&#11045;</text>
      <text x="100" y="102" text-anchor="middle" font-size="13">RajKC7717</text>
      <text x="100" y="150" text-anchor="middle" font-size="10" fill="#3d5a80" letter-spacing="3">GITHUB</text>
    </g>
    <g transform="translate(280,140)">
      <rect width="200" height="180" fill="none" stroke="#0c1b2e" stroke-width="1.5" stroke-dasharray="6 4"/>
      <rect x="6" y="6" width="188" height="168" fill="none" stroke="#0c1b2e" stroke-width="0.5" stroke-dasharray="2 3" opacity="0.5"/>
      <text x="100" y="62" text-anchor="middle" font-size="44" fill="#1b3a5c">&#9680;</text>
      <text x="100" y="96" text-anchor="middle" font-size="11">raj-choudhari</text>
      <text x="100" y="114" text-anchor="middle" font-size="11">-581b1133a</text>
      <text x="100" y="150" text-anchor="middle" font-size="10" fill="#3d5a80" letter-spacing="3">LINKEDIN</text>
    </g>
    <g transform="translate(500,140)">
      <rect width="200" height="180" fill="none" stroke="#0c1b2e" stroke-width="1.5" stroke-dasharray="6 4"/>
      <rect x="6" y="6" width="188" height="168" fill="none" stroke="#0c1b2e" stroke-width="0.5" stroke-dasharray="2 3" opacity="0.5"/>
      <text x="100" y="62" text-anchor="middle" font-size="44" fill="#1b3a5c">&#9993;</text>
      <text x="100" y="96" text-anchor="middle" font-size="10">choudhariraj8055</text>
      <text x="100" y="114" text-anchor="middle" font-size="10">@gmail.com</text>
      <text x="100" y="150" text-anchor="middle" font-size="10" fill="#3d5a80" letter-spacing="3">EMAIL</text>
    </g>
    <g transform="translate(720,140)">
      <rect width="200" height="180" fill="none" stroke="#0c1b2e" stroke-width="1.5" stroke-dasharray="6 4"/>
      <rect x="6" y="6" width="188" height="168" fill="none" stroke="#0c1b2e" stroke-width="0.5" stroke-dasharray="2 3" opacity="0.5"/>
      <text x="100" y="62" text-anchor="middle" font-size="44" fill="#1b3a5c">&#9993;</text>
      <text x="100" y="96" text-anchor="middle" font-size="11">customs7717</text>
      <text x="100" y="114" text-anchor="middle" font-size="11">@gmail.com</text>
      <text x="100" y="150" text-anchor="middle" font-size="10" fill="#3d5a80" letter-spacing="3">EMAIL</text>
    </g>
    <g transform="translate(940,140)">
      <rect width="200" height="180" fill="none" stroke="#0c1b2e" stroke-width="1.5" stroke-dasharray="6 4"/>
      <rect x="6" y="6" width="188" height="168" fill="none" stroke="#0c1b2e" stroke-width="0.5" stroke-dasharray="2 3" opacity="0.5"/>
      <text x="100" y="62" text-anchor="middle" font-size="44" fill="#1b3a5c">&#9742;</text>
      <text x="100" y="102" text-anchor="middle" font-size="13">8055468084</text>
      <text x="100" y="150" text-anchor="middle" font-size="10" fill="#3d5a80" letter-spacing="3">PHONE</text>
    </g>
  </g>
</svg>
